# xmcd
#
# Track frame offsets: 
#        150
#        20002
#        37863
#        58184
#        71337
#        87835
#        104052
#        121028
#        144967
#        160810
#        180937
#        200344
#        214731
#
# Disc length: 3129 seconds
#
# Revision: 5
# Processed by: cddbd v1.5.2PL0 Copyright (c) Steve Scherf et al.
# Submitted via: ExactAudioCopy v0.99pb5
#
DISCID=a90c370d
DTITLE=Susan Wong - Just A Little Bossa Nova
DYEAR=2005
DGENRE=Jazz
TTITLE0=The look of love
TTITLE1=Girl from ipanema
TTITLE2=Emotion
TTITLE3=A I love her
TTITLE4=Somewhere beyond the sea
TTITLE5=All the way
TTITLE6=The shadow of your smile
TTITLE7=Just the way you are
TTITLE8=Imagine
TTITLE9=Desafinado
TTITLE10=Get here
TTITLE11=If
TTITLE12=Kissing a fool
EXTD=YEAR: 2005 ID3G:   8
EXTT0=
EXTT1=
EXTT2=
EXTT3=
EXTT4=
EXTT5=
EXTT6=
EXTT7=
EXTT8=
EXTT9=
EXTT10=
EXTT11=
EXTT12=
PLAYORDER=
